<?xml version="1.0" encoding="UTF-8"?>
<svg xmlns="http://www.w3.org/2000/svg" viewBox="0 0 2600 619">
  <defs>
    <style>
      .primary {
        fill: #ffffff;
      }
    </style>
  </defs>

  <!-- Icon -->
  <g transform="translate(150,110)">
    <circle class="primary" cx="200" cy="200" r="170" opacity="0.12"/>
    <path class="primary" d="M200 95
                             C140 95 95 140 95 200
                             C95 260 140 305 200 305
                             C250 305 290 275 300 230
                             L265 230
                             C255 260 230 280 200 280
                             C155 280 120 245 120 200
                             C120 155 155 120 200 120
                             C225 120 245 130 260 145
                             L235 145
                             L300 185
                             L280 110
                             L255 135
                             C235 110 215 95 200 95 Z"/>
  </g>

  <!-- Wordmark -->
  <text x="650"
        y="360"
        class="primary"
        font-family="Inter, Helvetica, Arial, sans-serif"
        font-size="180"
        font-weight="600"
        letter-spacing="4">
    TechRefurbished
  </text>
</svg>